<?xml version="1.0" encoding="UTF-8"?>
<svg width="44px" height="36px" viewBox="0 0 44 36" version="1.1" xmlns="http://www.w3.org/2000/svg" xmlns:xlink="http://www.w3.org/1999/xlink">
    <!-- Generator: sketchtool 51.3 (57544) - http://www.bohemiancoding.com/sketch -->
    <title>4C307838-B3ED-496B-8B31-E93769D49E81</title>
    <desc>Created with sketchtool.</desc>
    <defs>
        <polygon id="path-1" points="0 0.000394736842 17 0.000394736842 17 25 0 25"></polygon>
        <polygon id="path-3" points="0 0.000394736842 17 0.000394736842 17 25 0 25"></polygon>
        <polygon id="path-5" points="0 0 18 0 18 14.9997273 0 14.9997273"></polygon>
    </defs>
    <g id="Page-1" stroke="none" stroke-width="1" fill="none" fill-rule="evenodd">
        <g id="Landing-page_IFAT-Copy-2" transform="translate(-1337.000000, -468.000000)">
            <g id="DIRECT" transform="translate(1337.000000, 468.000000)">
                <g id="Group-3" transform="translate(0.000000, 11.000000)">
                    <mask id="mask-2" fill="white">
                        <use xlink:href="#path-1"></use>
                    </mask>
                    <g id="Clip-2"></g>
                    <path d="M15.6923077,23.6846053 L1.30769231,23.6846053 L1.30769231,19.0793421 C1.30769231,15.0925 4.53769231,11.8425 8.5,11.8425 C12.4623077,11.8425 15.6923077,15.0925 15.6923077,19.0793421 L15.6923077,23.6846053 Z M3.92307692,5.92144737 C3.92307692,3.38197368 5.97615385,1.31618421 8.5,1.31618421 C11.0238462,1.31618421 13.0769231,3.38197368 13.0769231,5.92144737 C13.0769231,8.46092105 11.0238462,10.5267105 8.5,10.5267105 C5.97615385,10.5267105 3.92307692,8.46092105 3.92307692,5.92144737 Z M11.39,11.0530263 C13.1684615,10.0267105 14.3846154,8.13197368 14.3846154,5.92144737 C14.3846154,2.65828947 11.7430769,0.000394736842 8.5,0.000394736842 C5.25692308,0.000394736842 2.61538462,2.65828947 2.61538462,5.92144737 C2.61538462,8.11881579 3.83153846,10.0267105 5.61,11.0530263 C2.34076923,12.2372368 0,15.3806579 0,19.0793421 L0,24.3425 C0,24.7096053 0.287692308,25.0003947 0.653846154,25.0003947 L16.3461538,25.0003947 C16.7123077,25.0003947 17,24.7096053 17,24.3425 L17,19.0793421 C17,15.3806579 14.6592308,12.2372368 11.39,11.0530263 Z" id="Fill-1" fill="#34B447" mask="url(#mask-2)"></path>
                </g>
                <g id="Group-6" transform="translate(27.000000, 11.000000)">
                    <mask id="mask-4" fill="white">
                        <use xlink:href="#path-3"></use>
                    </mask>
                    <g id="Clip-5"></g>
                    <path d="M15.6923077,23.6846053 L1.30769231,23.6846053 L1.30769231,19.0793421 C1.30769231,15.0925 4.53769231,11.8425 8.5,11.8425 C12.4623077,11.8425 15.6923077,15.0925 15.6923077,19.0793421 L15.6923077,23.6846053 Z M3.92307692,5.92144737 C3.92307692,3.38197368 5.97615385,1.31618421 8.5,1.31618421 C11.0238462,1.31618421 13.0769231,3.38197368 13.0769231,5.92144737 C13.0769231,8.46092105 11.0238462,10.5267105 8.5,10.5267105 C5.97615385,10.5267105 3.92307692,8.46092105 3.92307692,5.92144737 Z M11.39,11.0530263 C13.1684615,10.0267105 14.3846154,8.13197368 14.3846154,5.92144737 C14.3846154,2.65828947 11.7430769,0.000394736842 8.5,0.000394736842 C5.25692308,0.000394736842 2.61538462,2.65828947 2.61538462,5.92144737 C2.61538462,8.11881579 3.83153846,10.0267105 5.61,11.0530263 C2.34076923,12.2503947 0,15.3938158 0,19.0793421 L0,24.3425 C0,24.7096053 0.287692308,25.0003947 0.653846154,25.0003947 L16.3461538,25.0003947 C16.7123077,25.0003947 17,24.7096053 17,24.3425 L17,19.0793421 C17,15.3806579 14.6592308,12.2372368 11.39,11.0530263 Z" id="Fill-4" fill="#34B447" mask="url(#mask-4)"></path>
                </g>
                <g id="Group-9" transform="translate(11.000000, 0.000000)">
                    <mask id="mask-6" fill="white">
                        <use xlink:href="#path-5"></use>
                    </mask>
                    <g id="Clip-8"></g>
                    <path d="M15.4285714,11.5906364 L15.4285714,12.6679091 L13.95,11.0997273 C13.8342857,10.977 13.6671429,10.8951818 13.5,10.8951818 L6.42857143,10.8951818 L6.42857143,8.16790909 L12.2142857,8.16790909 C12.5742857,8.16790909 12.8571429,7.86790909 12.8571429,7.48609091 L12.8571429,5.45427273 L16.7142857,5.45427273 L16.7142857,10.9088182 L16.0714286,10.9088182 C15.7114286,10.9088182 15.4285714,11.2088182 15.4285714,11.5906364 Z M6.42857143,6.81790909 L11.5714286,6.81790909 L11.5714286,5.45427273 L6.42857143,5.45427273 L6.42857143,6.81790909 Z M5.14285714,4.77245455 L5.14285714,6.81790909 L4.5,6.81790909 C4.33285714,6.81790909 4.16571429,6.88609091 4.05,7.02245455 L2.57142857,8.59063636 L2.57142857,7.49972727 C2.57142857,7.11790909 2.28857143,6.81790909 1.92857143,6.81790909 L1.28571429,6.81790909 L1.28571429,1.36336364 L11.5714286,1.36336364 L11.5714286,4.09063636 L5.78571429,4.09063636 C5.42571429,4.09063636 5.14285714,4.39063636 5.14285714,4.77245455 Z M16.0714286,14.9997273 C16.1485714,14.9997273 16.2385714,14.9860909 16.3157143,14.9451818 C16.56,14.8360909 16.7142857,14.5906364 16.7142857,14.3179091 L16.7142857,12.2724545 L17.3571429,12.2724545 C17.7171429,12.2724545 18,11.9724545 18,11.5906364 L18,4.77245455 C18,4.39063636 17.7171429,4.09063636 17.3571429,4.09063636 L12.8571429,4.09063636 L12.8571429,0.681545455 C12.8571429,0.299727273 12.5742857,-0.000272727273 12.2142857,-0.000272727273 L0.642857143,-0.000272727273 C0.282857143,-0.000272727273 0,0.299727273 0,0.681545455 L0,7.49972727 C0,7.88154545 0.282857143,8.18154545 0.642857143,8.18154545 L1.28571429,8.18154545 L1.28571429,10.227 C1.28571429,10.4997273 1.44,10.7451818 1.68428571,10.8542727 C1.76142857,10.8951818 1.85142857,10.9088182 1.92857143,10.9088182 C2.09571429,10.9088182 2.26285714,10.8406364 2.37857143,10.7042727 L4.75714286,8.18154545 L5.13,8.18154545 L5.13,11.5906364 C5.13,11.9724545 5.41285714,12.2724545 5.77285714,12.2724545 L13.2171429,12.2724545 L15.5957143,14.7951818 C15.7371429,14.9315455 15.9042857,14.9997273 16.0714286,14.9997273 Z" id="Fill-7" fill="#34B447" mask="url(#mask-6)"></path>
                </g>
            </g>
        </g>
    </g>
</svg>