<?xml version="1.0" encoding="UTF-8"?>
<svg width="42px" height="45px" viewBox="0 0 42 45" version="1.1" xmlns="http://www.w3.org/2000/svg" xmlns:xlink="http://www.w3.org/1999/xlink">
    <!-- Generator: sketchtool 51.3 (57544) - http://www.bohemiancoding.com/sketch -->
    <title>D5ECCC52-25FB-49AB-860F-9C13A09B7C66</title>
    <desc>Created with sketchtool.</desc>
    <defs></defs>
    <g id="Page-1" stroke="none" stroke-width="1" fill="none" fill-rule="evenodd">
        <g id="Landing-page_IFAT-Copy-2" transform="translate(-1337.000000, -210.000000)" fill="#53D06D">
            <g id="MIHRAZIM" transform="translate(1337.000000, 210.000000)">
                <polygon id="Fill-1-Copy" points="34.992192 20.8876359 38.1406977 22.3326621 20.976576 30.2231172 3.8496096 22.3326621 6.99165353 20.8876359 5.06442555 20 0 22.3326621 20.9749606 32 42 22.3326621 36.9210354 20"></polygon>
                <polygon id="Fill-2" points="34.992192 27.8876359 38.1406977 29.3342731 20.976576 37.2247282 3.8496096 29.3342731 6.99165353 27.8876359 5.06442555 27 0 29.3342731 20.9749606 39 42 29.3342731 36.9210354 27"></polygon>
                <polygon id="Fill-3" points="34.992192 33.8876359 38.1406977 35.335884 20.976576 43.2247282 3.8496096 35.335884 6.99165353 33.8876359 5.06442555 33 0 35.335884 20.9749606 45 42 35.335884 36.9210354 33"></polygon>
                <polygon id="Fill-4-Copy" points="34.992192 14.8876359 38.1406977 16.3342731 20.976576 24.2247282 3.8496096 16.3342731 6.99165353 14.8876359 5.06442555 14 0 16.3342731 20.9749606 26 42 16.3342731 36.9210354 14"></polygon>
                <path d="M20.9749606,0 L0,9.49841667 L20.9749606,19 L42,9.49841667 L20.9749606,0 Z M3.8496096,9.49841667 L20.976576,1.74483333 L38.1406977,9.49841667 L20.976576,17.2551667 L3.8496096,9.49841667 Z" id="Fill-5"></path>
            </g>
        </g>
    </g>
</svg>