<?xml version="1.0" encoding="UTF-8"?>
<svg width="58px" height="26px" viewBox="0 0 58 26" version="1.1" xmlns="http://www.w3.org/2000/svg" xmlns:xlink="http://www.w3.org/1999/xlink">
    <!-- Generator: sketchtool 51.3 (57544) - http://www.bohemiancoding.com/sketch -->
    <title>6B212F91-EE88-406F-86CC-0818BEB7538D</title>
    <desc>Created with sketchtool.</desc>
    <defs></defs>
    <g id="Page-1" stroke="none" stroke-width="1" fill="none" fill-rule="evenodd">
        <g id="Landing-page_IFAT-Copy-2" transform="translate(-836.000000, -462.000000)" fill="#34B447">
            <path d="M843.722933,463.351007 L837.348984,463.351007 L837.348984,483.599257 L843.528005,483.599257 L843.722933,469.367476 L845.071917,469.396479 L844.966022,479.477436 C848.345227,479.93744 850.194009,480.82642 856.340655,483.171629 C861.354828,485.087861 862.777332,486.134672 868.362125,486.134672 C873.824162,486.134672 878.972559,482.623941 882.102202,481.003812 C882.105349,481.003812 885.140114,479.526899 891.206494,476.573074 C891.725853,476.317441 892.152807,475.955914 892.397647,475.570779 C892.641139,475.185644 892.726799,474.799834 892.59932,474.323643 C892.343013,473.364515 891.342742,472.766241 890.427456,473.047504 L877.793547,476.92381 C877.318704,478.218834 876.252333,479.174589 874.918188,479.174589 L862.01583,479.174589 C861.83709,479.174589 861.659024,479.105117 861.53222,478.980336 C861.405415,478.85488 861.331221,478.678163 861.331221,478.500097 C861.331221,478.322032 861.405415,478.14464 861.53222,478.019859 C861.659024,477.894404 861.83709,477.822907 862.01583,477.825605 L874.918188,477.825605 C875.811215,477.825605 876.713011,476.809146 876.713011,475.404179 C876.713011,473.991118 875.815262,472.994219 874.906721,472.976008 L863.830888,472.77366 C863.664289,472.77366 863.499038,472.702839 863.378304,472.587501 L856.727813,466.251323 L845.071917,466.251323 L845.071917,469.396479 L843.722933,469.367476 L843.722933,463.351007 Z M844.874291,462.19965 C844.999072,462.324431 845.071917,462.499799 845.071917,462.676515 L845.071917,464.902339 L856.996935,464.902339 C857.168256,464.902339 857.338228,464.970463 857.462335,465.088499 L864.118222,471.430072 L874.930328,471.627024 C876.73392,471.662772 878.06132,473.40431 878.06132,475.404179 C878.06132,475.410025 882.051165,474.19459 890.030855,471.757876 C891.706293,471.243913 893.457274,472.304889 893.902439,473.97628 C894.12637,474.814673 893.948304,475.642949 893.536864,476.29316 C893.125424,476.94337 892.502868,477.439122 891.802071,477.783112 C891.801621,477.783562 888.774951,479.255978 882.72206,482.20036 C879.778577,483.724038 874.391409,487.481633 868.362125,487.481633 C862.601964,487.481633 860.80107,486.318134 855.859742,484.429556 C849.789314,482.113351 848.063964,481.277655 844.936344,480.833165 L844.862825,484.28589 C844.858778,484.460583 844.784584,484.631904 844.660477,484.753313 C844.535696,484.875396 844.362352,484.946217 844.188333,484.946217 L836.674492,484.946217 C836.497775,484.946217 836.322407,484.873372 836.197626,484.748591 C836.072845,484.62381 836,484.447768 836,484.271725 L836,462.674492 C836,462.497775 836.072845,462.322407 836.197626,462.197626 C836.322407,462.072171 836.497775,462 836.674492,462 L844.397425,462 C844.574142,462.002023 844.74951,462.074869 844.874291,462.19965 Z" id="NEW-OPP" transform="translate(865.000000, 474.740816) scale(-1, 1) translate(-865.000000, -474.740816) "></path>
        </g>
    </g>
</svg>